Run_50002
nRows=4
nColumns=164

# SIMM Motion File Header:
name Run_50002
datacolumns 164
datarows 4
otherdata 1
range 2.13000000 2.16000000
endheader
time	pelvis_tilt	pelvis_list	pelvis_rotation	pelvis_tx	pelvis_ty	pelvis_tz	hip_flexion_r	hip_adduction_r	hip_rotation_r	knee_angle_r	ankle_angle_r	hip_flexion_l	hip_adduction_l	hip_rotation_l	knee_angle_l	ankle_angle_l	lumbar_extension	lumbar_bending	lumbar_rotation	arm_flex_r	arm_add_r	arm_rot_r	elbow_flex_r	pro_sup_r	arm_flex_l	arm_add_l	arm_rot_l	elbow_flex_l	pro_sup_l	subtalar_angle_r	mtp_angle_r	subtalar_angle_l	mtp_angle_l	wrist_flex_r	wrist_dev_r	wrist_flex_l	wrist_dev_l	LASI_tx	LASI_ty	LASI_tz	RASI_tx	RASI_ty	RASI_tz	LPSI_tx	LPSI_ty	LPSI_tz	RPSI_tx	RPSI_ty	RPSI_tz	RTH1_tx	RTH1_ty	RTH1_tz	RTH2_tx	RTH2_ty	RTH2_tz	RTH3_tx	RTH3_ty	RTH3_tz	LTH1_tx	LTH1_ty	LTH1_tz	LTH2_tx	LTH2_ty	LTH2_tz	LTH3_tx	LTH3_ty	LTH3_tz	RTB1_tx	RTB1_ty	RTB1_tz	RTB2_tx	RTB2_ty	RTB2_tz	RTB3_tx	RTB3_ty	RTB3_tz	LTB1_tx	LTB1_ty	LTB1_tz	LTB2_tx	LTB2_ty	LTB2_tz	LTB3_tx	LTB3_ty	LTB3_tz	RCAL_tx	RCAL_ty	RCAL_tz	RTOE_tx	RTOE_ty	RTOE_tz	RMT5_tx	RMT5_ty	RMT5_tz	LCAL_tx	LCAL_ty	LCAL_tz	LTOE_tx	LTOE_ty	LTOE_tz	LMT5_tx	LMT5_ty	LMT5_tz	LACR_tx	LACR_ty	LACR_tz	RACR_tx	RACR_ty	RACR_tz	CLAV_tx	CLAV_ty	CLAV_tz	C7_tx	C7_ty	C7_tz	RUA1_tx	RUA1_ty	RUA1_tz	RUA2_tx	RUA2_ty	RUA2_tz	RUA3_tx	RUA3_ty	RUA3_tz	RLEL_tx	RLEL_ty	RLEL_tz	RMEL_tx	RMEL_ty	RMEL_tz	LUA1_tx	LUA1_ty	LUA1_tz	LUA2_tx	LUA2_ty	LUA2_tz	LUA3_tx	LUA3_ty	LUA3_tz	LLEL_tx	LLEL_ty	LLEL_tz	LMEL_tx	LMEL_ty	LMEL_tz	RFAsuperior_tx	RFAsuperior_ty	RFAsuperior_tz	RFAradius_tx	RFAradius_ty	RFAradius_tz	RFAulna_tx	RFAulna_ty	RFAulna_tz	LFAsuperior_tx	LFAsuperior_ty	LFAsuperior_tz	LFAradius_tx	LFAradius_ty	LFAradius_tz	LFAulna_tx	LFAulna_ty	LFAulna_tz
      2.13000000	    -15.52345568	      3.64841814	      3.30299014	      1.03152389	      0.95818374	     -0.35143683	      9.69744445	     -1.49753571	     -3.00452448	   -102.31432338	     -4.73719868	     45.63520820	      9.41481145	    -11.74249622	    -32.44106503	      3.53934721	      6.35927039	     -5.19980230	      6.42579364	    -26.89763140	    -18.70226489	     -8.27348544	    100.83075335	    116.78449638	    -50.57060305	    -16.67270783	    -14.55352977	    116.02410678	    102.05064413	      0.00000000	      0.00000000	      0.00000000	      0.00000000	      0.00000000	      0.00000000	      0.00000000	      0.00000000	      1.04812438	      0.99295374	     -0.43331626	      1.06551016	      0.99050129	     -0.23788370	      0.88219802	      1.06427467	     -0.39793026	      0.89854014	      1.05511182	     -0.28435744	      0.97616535	      0.87239079	     -0.19285657	      0.89354203	      0.74053406	     -0.21077589	      0.90676014	      0.58189627	     -0.21505999	      0.98790091	      0.88516827	     -0.53511818	      0.98425415	      0.72211634	     -0.48166779	      1.08954749	      0.62112071	     -0.48634386	      0.75665457	      0.44847801	     -0.27872312	      0.72956296	      0.54313748	     -0.21905520	      0.57955076	      0.52142965	     -0.28593747	      1.21144060	      0.42620486	     -0.41342089	      1.12335749	      0.31009869	     -0.43418434	      1.18768551	      0.21349531	     -0.36596542	      0.49619495	      0.66879910	     -0.27933243	      0.39379787	      0.45128447	     -0.31733938	      0.37594985	      0.50189358	     -0.22618095	      1.06381674	      0.09579329	     -0.30558279	      1.29959194	      0.07973326	     -0.31638855	      1.24775912	      0.02923773	     -0.39870219	      0.99088562	      1.49689855	     -0.51433603	      1.05846718	      1.46903675	     -0.19930147	      1.09081469	      1.44198953	     -0.33738151	      0.96332709	      1.51042937	     -0.34843274	      0.95752946	      1.38066375	     -0.11853240	      1.00290525	      1.31976428	     -0.09412228	      0.94295464	      1.25106429	     -0.03933617	      0.91294807	      1.19689509	     -0.00467679	      0.89263547	      1.16692131	     -0.08903118	      0.86441917	      1.44437606	     -0.54638620	      0.86346783	      1.36573521	     -0.58723124	      0.76965124	      1.33392795	     -0.59208777	      0.72775145	      1.27699808	     -0.60955666	      0.72664562	      1.25302849	     -0.52280205	      1.00101291	      1.13285381	     -0.02583419	      1.12502436	      1.07847986	     -0.15135581	      1.11307826	      1.03834683	     -0.09668191	      0.77230912	      1.20660407	     -0.62099203	      0.94858248	      1.14747334	     -0.56872631	      0.91514428	      1.09391440	     -0.60271672
      2.14000000	    -15.58505333	      4.46589006	      4.13224969	      1.02858197	      0.95156709	     -0.35248218	     13.43176918	     -3.60351447	     -3.58885620	   -107.96748095	     -1.62846351	     46.46031438	     10.50903460	    -12.33458050	    -39.53266935	      8.59763009	      5.99736436	     -6.37772872	      4.47408706	    -27.02617337	    -18.58335606	     -8.28077215	     96.43374158	    117.20826836	    -47.84563116	    -16.33363057	    -13.51095481	    114.29659896	    101.44979803	      0.00000000	      0.00000000	      0.00000000	      0.00000000	      0.00000000	      0.00000000	      0.00000000	      0.00000000	      1.04465483	      0.98860122	     -0.43239546	      1.06359396	      0.98314390	     -0.23929580	      0.87874099	      1.05975396	     -0.39673667	      0.89670978	      1.04922301	     -0.28359261	      0.97922797	      0.86500490	     -0.19175493	      0.90307883	      0.72986847	     -0.20712437	      0.92624404	      0.57144215	     -0.21023621	      0.98130698	      0.88030467	     -0.53711463	      0.98144604	      0.71817376	     -0.48304061	      1.08739128	      0.61734292	     -0.48752509	      0.78343976	      0.44305498	     -0.27312639	      0.75838382	      0.53842645	     -0.21335850	      0.60904786	      0.52106381	     -0.28291117	      1.20053430	      0.42119678	     -0.40734285	      1.10369776	      0.31302448	     -0.43115612	      1.15512376	      0.21157344	     -0.35802007	      0.52643129	      0.67157672	     -0.28201326	      0.42675856	      0.45074332	     -0.30683799	      0.41090096	      0.50555881	     -0.21751055	      1.01625173	      0.09876918	     -0.29859447	      1.25262607	      0.07545182	     -0.31067859	      1.19624704	      0.03287580	     -0.39613533	      0.99285298	      1.48759884	     -0.51664365	      1.05528607	      1.46330447	     -0.19800674	      1.09110945	      1.43615162	     -0.33607551	      0.96297513	      1.50376387	     -0.35113214	      0.95198690	      1.37418286	     -0.12051021	      0.99670686	      1.31334494	     -0.09353998	      0.93466622	      1.24515121	     -0.04021194	      0.90256406	      1.19282416	     -0.00520236	      0.88308951	      1.16209052	     -0.08877368	      0.86863681	      1.42779287	     -0.55281481	      0.87093676	      1.34856364	     -0.58962107	      0.77782130	      1.31378004	     -0.59594222	      0.73780471	      1.25626812	     -0.61373983	      0.73617585	      1.23363015	     -0.52646835	      0.98693209	      1.12152411	     -0.02086820	      1.11083453	      1.05465288	     -0.13969448	      1.09467183	      1.01814036	     -0.08397832	      0.78354914	      1.18554031	     -0.62308716	      0.96017532	      1.13048690	     -0.56680751	      0.92813697	      1.07570598	     -0.59983184
      2.15000000	    -15.70940446	      5.27902860	      4.57661160	      1.02510855	      0.94617502	     -0.35313257	     17.74484836	     -5.50668798	     -3.26768269	   -112.98131832	      1.14696374	     46.26252560	     11.62248706	    -12.02179129	    -44.46883329	     13.21895009	      5.61157890	     -7.42720820	      2.97429503	    -27.36495304	    -18.42228242	     -8.49011120	     92.68217135	    117.20286200	    -44.57324456	    -16.19185362	    -12.12781721	    112.12975069	    100.94250771	      0.00000000	      0.00000000	      0.00000000	      0.00000000	      0.00000000	      0.00000000	      0.00000000	      0.00000000	      1.04132032	      0.98523158	     -0.43195933	      1.06023106	      0.97728661	     -0.24072523	      0.87541900	      1.05621611	     -0.39602775	      0.89409813	      1.04485278	     -0.28329379	      0.98031349	      0.85969973	     -0.19243313	      0.91350560	      0.72053060	     -0.20349427	      0.94781691	      0.56350831	     -0.20624108	      0.97600394	      0.87675450	     -0.53866956	      0.97748587	      0.71492553	     -0.48260978	      1.08168035	      0.61288845	     -0.48581827	      0.81366177	      0.43828175	     -0.26925317	      0.78827661	      0.53322181	     -0.20683694	      0.64030888	      0.51785452	     -0.28008829	      1.18474428	      0.41461437	     -0.40141130	      1.08014827	      0.31468144	     -0.42874358	      1.11959694	      0.20915977	     -0.35375804	      0.55550344	      0.66967614	     -0.28324940	      0.46199224	      0.44512981	     -0.29729658	      0.44806668	      0.50263550	     -0.20897522	      0.96892213	      0.10114039	     -0.29603258	      1.20563130	      0.07467612	     -0.30903960	      1.14703138	      0.03545172	     -0.39529027	      0.99455916	      1.48003276	     -0.51821197	      1.05268010	      1.45868525	     -0.19665059	      1.09140771	      1.43132381	     -0.33483788	      0.96359148	      1.49957015	     -0.35334948	      0.94713155	      1.36926978	     -0.12177054	      0.99042343	      1.30824428	     -0.09313896	      0.92515815	      1.24116182	     -0.04099573	      0.89105489	      1.19023710	     -0.00615021	      0.87336313	      1.15829957	     -0.08881088	      0.87398929	      1.41153380	     -0.55877558	      0.87965855	      1.33215157	     -0.59125324	      0.78772556	      1.29368836	     -0.60014484	      0.75009111	      1.23553666	     -0.61849759	      0.74741163	      1.21412406	     -0.53083815	      0.97172021	      1.11281619	     -0.01669784	      1.09492213	      1.03521534	     -0.12840226	      1.07455414	      1.00192072	     -0.07232261	      0.79699965	      1.16436558	     -0.62540854	      0.97354492	      1.11342440	     -0.56427813	      0.94281894	      1.05765688	     -0.59656681
      2.16000000	    -15.83583901	      5.99885887	      4.45708079	      1.02180293	      0.94232767	     -0.35343617	     22.58330137	     -6.91812502	     -1.97088056	   -117.10763108	      3.55670833	     44.89248609	     12.58141715	    -11.22533589	    -47.12899103	     17.06085593	      5.29602254	     -8.18320945	      2.10496350	    -28.09727680	    -18.27909787	     -9.00248019	     89.92948039	    116.43955174	    -40.86606462	    -16.14022819	    -10.48496292	    109.65766733	    100.65648784	      0.00000000	      0.00000000	      0.00000000	      0.00000000	      0.00000000	      0.00000000	      0.00000000	      0.00000000	      1.03911932	      0.98300028	     -0.43279334	      1.05594434	      0.97369470	     -0.24170530	      0.87323048	      1.05381659	     -0.39658897	      0.89078720	      1.04211900	     -0.28405603	      0.97980961	      0.85678893	     -0.19430931	      0.92475766	      0.71328802	     -0.20085506	      0.97139069	      0.55918682	     -0.20305784	      0.97341122	      0.87416572	     -0.53886379	      0.97091734	      0.71194600	     -0.48070782	      1.07130964	      0.60699857	     -0.48182714	      0.84674418	      0.43444994	     -0.26688578	      0.81915146	      0.52817552	     -0.20064835	      0.67287285	      0.51225584	     -0.27751282	      1.16348799	      0.40495396	     -0.39638189	      1.05272601	      0.31249562	     -0.42641756	      1.08167688	      0.20445030	     -0.35175086	      0.58249689	      0.66339458	     -0.28288943	      0.49918437	      0.43450651	     -0.28915238	      0.48681447	      0.49313597	     -0.20095294	      0.92237507	      0.10273505	     -0.29660199	      1.15934307	      0.07373941	     -0.30925648	      1.09998566	      0.03590065	     -0.39602189	      0.99576803	      1.47455036	     -0.51899021	      1.05052576	      1.45500196	     -0.19562252	      1.09131828	      1.42746149	     -0.33367767	      0.96455099	      1.49725954	     -0.35422201	      0.94262512	      1.36659622	     -0.12222694	      0.98365592	      1.30511741	     -0.09296973	      0.91413217	      1.24014098	     -0.04187577	      0.87822428	      1.19015890	     -0.00749328	      0.86344482	      1.15653774	     -0.08967949	      0.87976208	      1.39731628	     -0.56247375	      0.88929177	      1.31814422	     -0.59218453	      0.79955658	      1.27495669	     -0.60427411	      0.76507512	      1.21581552	     -0.62339339	      0.76054182	      1.19532554	     -0.53552455	      0.95584198	      1.10838869	     -0.01335224	      1.07855404	      1.02143796	     -0.11800571	      1.05340124	      0.99069741	     -0.06234660	      0.81347373	      1.14459668	     -0.62775693	      0.98913548	      1.09747991	     -0.56115226	      0.95968096	      1.04096728	     -0.59312868
